<?xml version="1.0" standalone="no"?><!DOCTYPE svg PUBLIC "-//W3C//DTD SVG 1.1//EN" "http://www.w3.org/Graphics/SVG/1.1/DTD/svg11.dtd"><svg t="1585486664576" class="icon" viewBox="0 0 1024 1024" version="1.1" xmlns="http://www.w3.org/2000/svg" p-id="1512" xmlns:xlink="http://www.w3.org/1999/xlink" width="200" height="200"><defs><style type="text/css"></style></defs><path d="M928 128H96a32 32 0 0 0-32 32v783.616a16 16 0 0 0 25.386667 12.928l215.466666-156.544H928a32 32 0 0 0 32-32V160a32 32 0 0 0-32-32M896 192v544H284.074667l-16.810667 12.202667L128 849.408V192h768" p-id="1513"></path><path d="M344.021333 408.021333h335.957334a32 32 0 1 0 0-64H344.064a32 32 0 0 0 0 64zM344.021333 584.021333h183.978667a32 32 0 1 0 0-64H343.978667a32 32 0 0 0 0 64z" p-id="1514"></path></svg>