<?xml version="1.0" standalone="no"?><!DOCTYPE svg PUBLIC "-//W3C//DTD SVG 1.1//EN" "http://www.w3.org/Graphics/SVG/1.1/DTD/svg11.dtd"><svg t="1585486643491" class="icon" viewBox="0 0 1024 1024" version="1.1" xmlns="http://www.w3.org/2000/svg" p-id="1254" xmlns:xlink="http://www.w3.org/1999/xlink" width="200" height="200"><defs><style type="text/css"></style></defs><path d="M512 68.010667a32.426667 32.426667 0 0 0-20.906667 7.594666L123.477333 387.242667a32 32 0 0 0-11.434666 24.490666v512.213334c0 17.706667 14.506667 32.042667 32.298666 32.042666h262.656a32.213333 32.213333 0 0 0 32.341334-32.042666v-304.64c0-8.874667 7.253333-16.085333 16.128-16.085334h113.152c8.917333 0 16.128 7.210667 16.128 16.042667v304.64c0 17.749333 14.506667 32.085333 32.341333 32.085333h262.613333a32.213333 32.213333 0 0 0 32.341334-32.042666V411.733333a32 32 0 0 0-11.434667-24.490666l-367.701333-311.637334A32.426667 32.426667 0 0 0 512 68.010667m0 73.813333l336 284.757333v465.408h-199.253333v-272.725333a80.213333 80.213333 0 0 0-80.213334-80.042667h-113.066666a80.213333 80.213333 0 0 0-80.213334 80.042667v272.725333h-199.253333V426.581333L512 141.781333" p-id="1255"></path></svg>