<?xml version="1.0" standalone="no"?><!DOCTYPE svg PUBLIC "-//W3C//DTD SVG 1.1//EN" "http://www.w3.org/Graphics/SVG/1.1/DTD/svg11.dtd"><svg t="1585486650610" class="icon" viewBox="0 0 1024 1024" version="1.1" xmlns="http://www.w3.org/2000/svg" p-id="1383" xmlns:xlink="http://www.w3.org/1999/xlink" width="200" height="200"><defs><style type="text/css"></style></defs><path d="M511.658667 64c-126.165333 0-225.536 101.461333-232.277334 230.656l-0.426666 11.178667c-2.56 100.266667 31.872 194.005333 117.12 246.4l1.066666 0.64-0.64 3.242666a308.906667 308.906667 0 0 1-3.413333 13.952l-2.090667 7.253334c-1.365333 4.650667-2.816 9.045333-4.181333 12.885333l-1.408 3.584-35.626667 8.746667c-196.394667 47.658667-269.866667 106.112-278.698666 289.792A64.597333 64.597333 0 0 0 135.637333 960h752c36.906667 0 66.346667-30.805333 64.554667-67.669333-8.448-175.872-76.16-236.928-254.293333-283.648l-60.074667-14.890667 0.64 1.706667a237.781333 237.781333 0 0 1-8.234667-25.429334l-3.413333-13.952-0.725333-3.242666 1.152-0.64c88.32-54.314667 122.154667-153.173333 116.693333-257.578667-6.784-129.194667-106.154667-230.656-232.277333-230.656z m0 64c91.008 0 163.328 73.813333 168.362666 169.984 4.650667 89.173333-25.557333 170.410667-101.034666 207.914667-36.821333 18.261333-4.394667 137.898667 30.805333 146.858666l48.64 11.946667c171.946667 41.813333 222.72 82.133333 229.845333 230.698667 0 0.298667-0.256 0.597333-0.64 0.597333H135.68c-0.384 0-0.64-0.298667-0.64-0.597333 6.997333-145.194667 55.594667-187.050667 218.325333-227.84l60.16-14.805334c35.2-8.96 67.626667-128.597333 30.805334-146.858666-75.52-37.546667-105.685333-118.741333-100.992-207.914667C348.288 201.813333 420.608 128 511.658667 128z" p-id="1384"></path></svg>